


A Marine must do whatever it takes to save his kidnapped niece and stop a terrorist attack masterminded by a radical militia group. 



Director:
 Scott Wiper

Writers:
 Scott Wiper, Declan O'Brien

Stars:
 Neal McDonough, Ashley Bell, Ben Cotton

Genres:
 Action 

Country:
USA

Language:
English 




Format                                   : AVI
Format/Info                              : Audio Video Interleave
File size                                : 707 MiB
Duration                                 : 1h 30mn
Overall bit rate                         : 1 096 Kbps

Video
ID                                       : 0
Format                                   : MPEG-4 Visual
Format profile                           : Simple@L3
Format settings, BVOP                    : No
Format settings, QPel                    : No
Format settings, GMC                     : No warppoints
Format settings, Matrix                  : Default (H.263)
Codec ID                                 : XVID
Codec ID/Hint                            : XviD
Duration                                 : 1h 30mn
Source duration                          : 1h 30mn
Bit rate                                 : 955 Kbps
Width                                    : 624 pixels
Height                                   : 352 pixels
Display aspect ratio                     : 16:9
Frame rate                               : 23.976 fps
Color space                              : YUV
Chroma subsampling                       : 4:2:0
Bit depth                                : 8 bits
Scan type                                : Progressive
Compression mode                         : Lossy
Bits/(Pixel*Frame)                       : 0.181
Stream size                              : 616 MiB (87%)
Writing library                          : XviD 1.1.2 (UTC 2006-11-01)

Audio
ID                                       : 1
Format                                   : MPEG Audio
Format version                           : Version 1
Format profile                           : Layer 3
Mode                                     : Joint stereo
Mode extension                           : MS Stereo
Codec ID                                 : 55
Codec ID/Hint                            : MP3
Duration                                 : 1h 30mn
Bit rate mode                            : Constant
Bit rate                                 : 128 Kbps
Channel(s)                               : 2 channels
Sampling rate                            : 48.0 KHz
Compression mode                         : Lossy
Stream size                              : 82.5 MiB (12%)
Alignment                                : Split accross interleaves
Interleave, duration                     : 24 ms (0.58 video frame)
Writing library                          : LAME3.98


 
http://bayimg.com/PAjnOAaEo 
http://bayimg.com/PajnPAaEO 
http://bayimg.com/AaJoaaaeo